<svg id="Capa_1" enable-background="new 0 0 512 512" height="512" fill="#ffffff" viewBox="0 0 512 512" width="512" xmlns="http://www.w3.org/2000/svg"><path d="m28.884 412.617 92.116 61.411v37.972h270v-37.972l92.116-61.411-33.97-135.881-43.601-29.067 25.778-25.778-76.924-38.462c3.004-10.377 5.009-21.256 5.959-32.429h30.642v-30h-30v-.836c0-31.863-7.377-63.46-21.334-91.374-8.879-17.758-26.729-28.79-46.584-28.79-14.498 0-27.63 5.954-37.082 15.545-9.452-9.591-22.584-15.545-37.082-15.545-19.854 0-37.704 11.032-46.583 28.79-13.958 27.914-21.335 59.511-21.335 91.374v.836h-30v30h30.642c.951 11.173 2.956 22.052 5.959 32.429l-76.924 38.462 25.778 25.778-43.601 29.067zm332.116 69.383h-210v-121h210zm-180-361.836c0-27.23 6.282-54.187 18.167-77.958 3.765-7.529 11.333-12.206 19.751-12.206 12.176 0 22.082 9.906 22.082 22.082v7.918h30v-7.918c0-12.176 9.906-22.082 22.082-22.082 8.418 0 15.986 4.677 19.75 12.207 11.886 23.77 18.168 50.727 18.168 77.957v.836h-150zm149.224 30.836c-4.491 43.822-32.16 90-74.224 90-42.308 0-69.77-46.531-74.224-90zm-241.078 144.264 38.943-25.962 27.305 27.305 21.213-21.213-45.284-45.284 37.44-18.72c17.737 33.939 48.664 59.61 87.237 59.61 38.568 0 69.497-25.666 87.237-59.611l37.44 18.72-45.284 45.284 21.213 21.213 27.305-27.305 38.943 25.962 26.03 104.119-57.884 38.59v-106.972h-270v106.972l-57.884-38.589z"/><path d="m241 391h30v30h-30z"/></svg>